<svg xmlns:xlink="http://www.w3.org/1999/xlink" xmlns="http://www.w3.org/2000/svg" id="Layer_1" x="0" y="0" viewBox="0 0 500 500" xml:space="preserve" width="500" height="500"><style></style><path d="M289.14 165.18H136.62l-20.01-28.61h192.08l-19.55 28.61zm47.65-131.55c-43.62-.12-80.95 31.34-88.17 74.34H89.43c-7.88-.06-14.33 6.27-14.43 14.18-.03 2.95.87 5.8 2.51 8.22l121.06 174.46V437.8h-52.43v28.57h133.47V437.8h-52.43V304.82L297.7 203.3c44.49 21.07 97.64 2.08 118.7-42.41 21.07-44.49 2.08-97.64-42.41-118.7-11.63-5.49-24.32-8.44-37.2-8.56" fill="#231f20"></path></svg>